# xmcd
#
# Track frame offsets: 
#        150
#        19976
#        68148
#        74187
#        99150
#        129331
#        135842
#        140843
#        169118
#        197291
#        199335
#        225741
#        229303
#        239929
#
# Disc length: 3317 seconds
#
# Revision: 0
# Processed by: cddbd v1.5.1PL0 Copyright (c) Steve Scherf et al.
# Submitted via: ExactAudioCopy v0.95a3
#
DISCID=d00cf30e
DTITLE=Stevie Ray Vaughan - Mississippi Finale
DYEAR=2004
DGENRE=Blues
TTITLE0=Crossfire
TTITLE1=Voodoo Child (Slight Return)
TTITLE2=Introduction of the Band
TTITLE3=Texas Flood
TTITLE4=Jamin' In The Studio (bonus track 1)
TTITLE5=Jamin' In The Studio (bonus track 2)
TTITLE6=Jamin' In The Studio (bonus track 3)
TTITLE7=Jamin' In The Studio (bonus track 4)
TTITLE8=Jamin' In The Studio (bonus track 5)
TTITLE9=Jamin' In The Studio (bonus track 6)
TTITLE10=Jamin' In The Studio (bonus track 7)
TTITLE11=Jamin' In The Studio (bonus track 8)
TTITLE12=Jamin' In The Studio (bonus track 9)
TTITLE13=Jamin' In The Studio (bonus track 10)
EXTD=Live audience recording from the Harriet Island Riverfest, St. Pa
EXTD=ul, MN, USA, July 30, 1990\nInDeeD Music, IDDCD 026D
EXTT0=
EXTT1=
EXTT2=
EXTT3=
EXTT4=March 1, 1985
EXTT5=March 1, 1985
EXTT6=March 1, 1985
EXTT7=March 1, 1985
EXTT8=March 1, 1985
EXTT9=March 1, 1985
EXTT10=March 1, 1985
EXTT11=March 1, 1985
EXTT12=March 1, 1985
EXTT13=March 1, 1985
PLAYORDER=
